<?xml version="1.0" encoding="UTF-8" standalone="no"?>
<!DOCTYPE svg PUBLIC "-//W3C//DTD SVG 1.1//EN" "http://www.w3.org/Graphics/SVG/1.1/DTD/svg11.dtd">
<svg width="100%" height="100%" viewBox="0 0 128 128" version="1.1" xmlns="http://www.w3.org/2000/svg" xmlns:xlink="http://www.w3.org/1999/xlink" xml:space="preserve"  style="fill-rule:evenodd;clip-rule:evenodd;stroke-linejoin:round;stroke-miterlimit:2;">
    <g transform="matrix(0.5,0,0,0.5,0,0)">
        <path d="M145.954,5.307C134.048,3.564 121.952,3.564 110.046,5.307L103.379,30.522C93.92,32.911 84.86,36.664 76.482,41.663L53.938,28.547C44.287,35.734 35.734,44.287 28.547,53.938L41.663,76.482C36.664,84.86 32.911,93.92 30.522,103.379L5.307,110.046C3.564,121.952 3.564,134.048 5.307,145.954L30.522,152.621C32.911,162.08 36.664,171.14 41.663,179.518L28.547,202.062C35.734,211.713 44.287,220.266 53.938,227.453L76.482,214.337C84.86,219.336 93.92,223.089 103.379,225.478L110.046,250.693C121.952,252.436 134.048,252.436 145.954,250.693L152.621,225.478C162.08,223.089 171.14,219.336 179.518,214.337L202.062,227.453C211.713,220.266 220.266,211.713 227.453,202.062L214.337,179.518C219.336,171.14 223.089,162.08 225.478,152.621L250.693,145.954C252.436,134.048 252.436,121.952 250.693,110.046L225.478,103.379C223.089,93.92 219.336,84.86 214.337,76.482L227.453,53.938C220.266,44.287 211.713,35.734 202.062,28.547L179.518,41.663C171.14,36.664 162.08,32.911 152.621,30.522L145.954,5.307ZM128,69.48C160.298,69.48 186.52,95.702 186.52,128C186.52,160.298 160.298,186.52 128,186.52C95.702,186.52 69.48,160.298 69.48,128C69.48,95.702 95.702,69.48 128,69.48Z" style="fill:rgb(154,154,154);fill-opacity:0.7;"/>
    </g>
</svg>
